{
    "asset" : {
        "generator" : "Khronos glTF Blender I/O v1.2.75",
        "version" : "2.0"
    },
    "scene" : 0,
    "scenes" : [
        {
            "extras" : {
                "namedlayers" : {
                    "layers" : [
                        {
                            "name" : "Layer01"
                        },
                        {
                            "name" : "Layer02"
                        },
                        {
                            "name" : "Layer03"
                        },
                        {
                            "name" : "Layer04"
                        },
                        {
                            "name" : "Layer05"
                        },
                        {
                            "name" : "Layer06"
                        },
                        {
                            "name" : "Layer07"
                        },
                        {
                            "name" : "Layer08"
                        },
                        {
                            "name" : "Layer09"
                        },
                        {
                            "name" : "Layer10"
                        },
                        {
                            "name" : "Layer11"
                        },
                        {
                            "name" : "Layer12"
                        },
                        {
                            "name" : "Layer13"
                        },
                        {
                            "name" : "Layer14"
                        },
                        {
                            "name" : "Layer15"
                        },
                        {
                            "name" : "Layer16"
                        },
                        {
                            "name" : "Layer17"
                        },
                        {
                            "name" : "Layer18"
                        },
                        {
                            "name" : "Layer19"
                        },
                        {
                            "name" : "Layer20"
                        }
                    ],
                    "use_init" : 0
                },
                "ats_settings" : {
                    "num_tiles" : [
                        60,
                        34
                    ],
                    "threads_error" : 0,
                    "prev_engine" : "CYCLES",
                    "prev_device" : "CPU",
                    "prev_border" : 0,
                    "prev_threads" : 8,
                    "prev_choice" : "32",
                    "prev_res" : [
                        1920,
                        1080
                    ],
                    "prev_border_res" : [
                        0,
                        0,
                        1,
                        1
                    ],
                    "prev_actual_tile_size" : [
                        32,
                        32
                    ],
                    "first_run" : 0
                },
                "yabee_settings" : {
                    "opt_tex_proc" : "BAKE",
                    "opt_tbs_proc" : 2,
                    "opt_bake_diffuse" : {
                        "export" : 1,
                        "res_x" : 512,
                        "res_y" : 512
                    },
                    "opt_bake_normal" : {
                        "export" : 0,
                        "res_x" : 512,
                        "res_y" : 512
                    },
                    "opt_bake_gloss" : {
                        "export" : 0,
                        "res_x" : 512,
                        "res_y" : 512
                    },
                    "opt_bake_glow" : {
                        "export" : 0,
                        "res_x" : 512,
                        "res_y" : 512
                    },
                    "opt_bake_AO" : {
                        "export" : 0,
                        "res_x" : 512,
                        "res_y" : 512
                    },
                    "opt_bake_shadow" : {
                        "export" : 0,
                        "res_x" : 512,
                        "res_y" : 512
                    },
                    "opt_export_uv_as_texture" : 0,
                    "opt_copy_tex_files" : 1,
                    "opt_separate_anim_files" : 1,
                    "opt_anim_only" : 0,
                    "opt_tex_path" : "./tex",
                    "opt_autoselect" : 1,
                    "opt_apply_object_transform" : 1,
                    "opt_merge_actor" : 1,
                    "opt_apply_modifiers" : 1,
                    "opt_apply_collide_tag" : 1,
                    "opt_pview" : 0,
                    "opt_use_loop_normals" : 0,
                    "opt_export_pbs" : 0,
                    "opt_force_export_vertex_colors" : 0,
                    "first_run" : 0
                }
            },
            "name" : "Scene",
            "nodes" : [
                16
            ]
        }
    ],
    "nodes" : [
        {
            "extras" : {
                "yabee_name" : "M2"
            },
            "name" : "M2",
            "rotation" : [
                0,
                0,
                0.0070195128209888935,
                0.9999753832817078
            ],
            "scale" : [
                1,
                0.9999999403953552,
                1
            ],
            "translation" : [
                -1.6298145055770874e-09,
                0.06245637312531471,
                4.656612873077393e-10
            ]
        },
        {
            "children" : [
                0
            ],
            "extras" : {
                "yabee_name" : "M1"
            },
            "name" : "M1",
            "rotation" : [
                0,
                0,
                -0.012012734077870846,
                0.9999279379844666
            ],
            "translation" : [
                1.979060471057892e-09,
                0.08779693394899368,
                -4.656612873077393e-10
            ]
        },
        {
            "children" : [
                1
            ],
            "extras" : {
                "yabee_name" : "M0"
            },
            "name" : "M0",
            "rotation" : [
                -0.7070980072021484,
                0.003530888818204403,
                0.003530888818204403,
                0.7070980072021484
            ],
            "scale" : [
                0.9999999403953552,
                0.9999999403953552,
                1
            ],
            "translation" : [
                -0.021672168746590614,
                0.005919686518609524,
                -0.057497791945934296
            ]
        },
        {
            "extras" : {
                "yabee_name" : "R2"
            },
            "name" : "R2",
            "rotation" : [
                0,
                0,
                0.0027444688603281975,
                0.9999962449073792
            ],
            "scale" : [
                0.9999999403953552,
                0.9999999403953552,
                1
            ],
            "translation" : [
                0,
                0.061841417104005814,
                4.656612873077393e-10
            ]
        },
        {
            "children" : [
                3
            ],
            "extras" : {
                "yabee_name" : "R1"
            },
            "name" : "R1",
            "rotation" : [
                0,
                0,
                0.0028376025147736073,
                0.9999960660934448
            ],
            "translation" : [
                -9.313225746154785e-10,
                0.08468275517225266,
                -4.656612873077393e-10
            ]
        },
        {
            "children" : [
                4
            ],
            "extras" : {
                "yabee_name" : "R0"
            },
            "name" : "R0",
            "rotation" : [
                -0.7063149809837341,
                -0.0334547720849514,
                -0.0334547720849514,
                0.7063149809837341
            ],
            "scale" : [
                0.9999999403953552,
                0.9999999403953552,
                1
            ],
            "translation" : [
                0.022741304710507393,
                0.005921133328229189,
                -0.04656301438808441
            ]
        },
        {
            "extras" : {
                "yabee_name" : "I2"
            },
            "name" : "I2",
            "rotation" : [
                0,
                0,
                -0.005016637500375509,
                0.9999874234199524
            ],
            "scale" : [
                1,
                0.9999999403953552,
                1
            ],
            "translation" : [
                1.862645149230957e-09,
                0.05044298246502876,
                0
            ]
        },
        {
            "children" : [
                6
            ],
            "extras" : {
                "yabee_name" : "I1"
            },
            "name" : "I1",
            "rotation" : [
                0,
                0,
                -0.0023492267355322838,
                0.9999972581863403
            ],
            "translation" : [
                9.313225746154785e-10,
                0.08235365152359009,
                -4.656612873077393e-10
            ]
        },
        {
            "children" : [
                7
            ],
            "extras" : {
                "yabee_name" : "I0"
            },
            "name" : "I0",
            "rotation" : [
                -0.7062382698059082,
                0.035035524517297745,
                0.035035524517297745,
                0.7062382698059082
            ],
            "translation" : [
                -0.0758509412407875,
                0.005925079807639122,
                -0.04547834023833275
            ]
        },
        {
            "extras" : {
                "yabee_name" : "T2"
            },
            "name" : "T2",
            "rotation" : [
                0,
                0,
                -0.0011286594672128558,
                0.999999463558197
            ],
            "translation" : [
                -3.725290298461914e-09,
                0.06328310072422028,
                1.862645149230957e-09
            ]
        },
        {
            "children" : [
                9
            ],
            "extras" : {
                "yabee_name" : "T1"
            },
            "name" : "T1",
            "rotation" : [
                0,
                0,
                0.0010420983890071511,
                0.999999463558197
            ],
            "translation" : [
                3.725290298461914e-09,
                0.1053704023361206,
                0
            ]
        },
        {
            "children" : [
                10
            ],
            "extras" : {
                "yabee_name" : "T0"
            },
            "name" : "T0",
            "rotation" : [
                -0.5950057506561279,
                0.38205790519714355,
                0.38205790519714355,
                0.5950057506561279
            ],
            "translation" : [
                -0.01532306894659996,
                -0.020348478108644485,
                0.10934095084667206
            ]
        },
        {
            "extras" : {
                "yabee_name" : "L2"
            },
            "name" : "L2",
            "rotation" : [
                0,
                0,
                -0.0031502849888056517,
                0.9999950528144836
            ],
            "translation" : [
                1.862645149230957e-09,
                0.052628010511398315,
                0
            ]
        },
        {
            "children" : [
                12
            ],
            "extras" : {
                "yabee_name" : "L1"
            },
            "name" : "L1",
            "rotation" : [
                0,
                0,
                0.014746122993528843,
                0.9998912811279297
            ],
            "translation" : [
                -1.862645149230957e-09,
                0.06829679012298584,
                -4.656612873077393e-10
            ]
        },
        {
            "children" : [
                13
            ],
            "extras" : {
                "yabee_name" : "L0"
            },
            "name" : "L0",
            "rotation" : [
                -0.7026439309120178,
                -0.0793190523982048,
                -0.0793190523982048,
                0.7026439309120178
            ],
            "translation" : [
                0.06654603034257889,
                0.005929673556238413,
                -0.026492081582546234
            ]
        },
        {
            "extras" : {
                "yabee_name" : "Hand"
            },
            "mesh" : 0,
            "name" : "Hand",
            "skin" : 0
        },
        {
            "children" : [
                15,
                2,
                5,
                8,
                11,
                14
            ],
            "extras" : {
                "yabee_name" : "Armature"
            },
            "name" : "Armature"
        }
    ],
    "meshes" : [
        {
            "extras" : {
                "yabee_name" : "Hand"
            },
            "name" : "Hand",
            "primitives" : [
                {
                    "attributes" : {
                        "POSITION" : 0,
                        "NORMAL" : 1,
                        "TEXCOORD_0" : 2,
                        "COLOR_0" : 3,
                        "JOINTS_0" : 4,
                        "WEIGHTS_0" : 5,
                        "JOINTS_1" : 6,
                        "WEIGHTS_1" : 7
                    },
                    "indices" : 8
                }
            ]
        }
    ],
    "skins" : [
        {
            "inverseBindMatrices" : 9,
            "joints" : [
                2,
                1,
                0,
                5,
                4,
                3,
                8,
                7,
                6,
                11,
                10,
                9,
                14,
                13,
                12
            ],
            "name" : "Armature"
        }
    ],
    "accessors" : [
        {
            "bufferView" : 0,
            "componentType" : 5126,
            "count" : 1483,
            "max" : [
                0.11165666580200195,
                0.05888738855719566,
                0.25905641913414
            ],
            "min" : [
                -0.25366735458374023,
                -0.06760745495557785,
                -0.2640846371650696
            ],
            "type" : "VEC3"
        },
        {
            "bufferView" : 1,
            "componentType" : 5126,
            "count" : 1483,
            "type" : "VEC3"
        },
        {
            "bufferView" : 2,
            "componentType" : 5126,
            "count" : 1483,
            "type" : "VEC2"
        },
        {
            "bufferView" : 3,
            "componentType" : 5126,
            "count" : 1483,
            "type" : "VEC4"
        },
        {
            "bufferView" : 4,
            "componentType" : 5123,
            "count" : 1483,
            "type" : "VEC4"
        },
        {
            "bufferView" : 5,
            "componentType" : 5126,
            "count" : 1483,
            "type" : "VEC4"
        },
        {
            "bufferView" : 6,
            "componentType" : 5123,
            "count" : 1483,
            "type" : "VEC4"
        },
        {
            "bufferView" : 7,
            "componentType" : 5126,
            "count" : 1483,
            "type" : "VEC4"
        },
        {
            "bufferView" : 8,
            "componentType" : 5123,
            "count" : 7626,
            "type" : "SCALAR"
        },
        {
            "bufferView" : 9,
            "componentType" : 5126,
            "count" : 15,
            "type" : "MAT4"
        }
    ],
    "bufferViews" : [
        {
            "buffer" : 0,
            "byteLength" : 17796,
            "byteOffset" : 0
        },
        {
            "buffer" : 0,
            "byteLength" : 17796,
            "byteOffset" : 17796
        },
        {
            "buffer" : 0,
            "byteLength" : 11864,
            "byteOffset" : 35592
        },
        {
            "buffer" : 0,
            "byteLength" : 23728,
            "byteOffset" : 47456
        },
        {
            "buffer" : 0,
            "byteLength" : 11864,
            "byteOffset" : 71184
        },
        {
            "buffer" : 0,
            "byteLength" : 23728,
            "byteOffset" : 83048
        },
        {
            "buffer" : 0,
            "byteLength" : 11864,
            "byteOffset" : 106776
        },
        {
            "buffer" : 0,
            "byteLength" : 23728,
            "byteOffset" : 118640
        },
        {
            "buffer" : 0,
            "byteLength" : 15252,
            "byteOffset" : 142368
        },
        {
            "buffer" : 0,
            "byteLength" : 960,
            "byteOffset" : 157620
        }
    ],
    "buffers" : [
        {
            "byteLength" : 158580,
            "uri" : "data:application/octet-stream;base64,"
        }
    ]
}
